<svg preserveAspectRatio="none" overflow="visible" style="display: block;" width="14" height="14" viewBox="0 0 14 14" fill="none" xmlns="http://www.w3.org/2000/svg">
<g id="icon/apple">
<path id="Vector" d="M11.7234 4.41972C11.3182 4.66776 10.9827 5.01453 10.748 5.42758C10.5134 5.84062 10.3874 6.30645 10.3819 6.78144C10.3835 7.31605 10.5418 7.83845 10.8374 8.28393C11.133 8.72941 11.5527 9.0784 12.0447 9.28768C11.8507 9.91347 11.5637 10.5065 11.1932 11.0469C10.663 11.81 10.1087 12.5731 9.26528 12.5731C8.42186 12.5731 8.20493 12.0831 7.23294 12.0831C6.28507 12.0831 5.94767 12.5892 5.1765 12.5892C4.40533 12.5892 3.86719 11.8823 3.24862 11.0147C2.43154 9.79941 1.98249 8.37414 1.95533 6.90993C1.95533 4.50007 3.52178 3.22288 5.06403 3.22288C5.88342 3.22288 6.56623 3.76102 7.08034 3.76102C7.57034 3.76102 8.3335 3.19068 9.26528 3.19068C9.74436 3.17832 10.2191 3.28395 10.6478 3.49827C11.0764 3.7126 11.4458 4.02904 11.7234 4.41972ZM8.8235 2.17054C9.23424 1.68736 9.46676 1.07787 9.4822 0.443877C9.4829 0.360299 9.47482 0.276879 9.45809 0.194989C8.75253 0.26391 8.10009 0.600191 7.63459 1.13486C7.21988 1.59879 6.97861 2.192 6.95178 2.81369C6.95209 2.88929 6.96017 2.96467 6.97589 3.03862C7.03151 3.04914 7.08798 3.05453 7.14459 3.05472C7.46976 3.02885 7.78627 2.93712 8.07489 2.78513C8.36351 2.63313 8.6182 2.42403 8.8235 2.17054Z" fill="#A4A4A4"/>
</g>
</svg>
